<svg xmlns="http://www.w3.org/2000/svg" viewBox="497 516 47 184" width="100%" height="100%">
  <g fill="none" stroke="#475569" stroke-width="0.5" stroke-linecap="round" stroke-linejoin="round">
    <path id="north_middle_andaman" d="M 511.929 594.743 L 512.858 596.315 L 512.095 596.944 L 513.019 597.368 L 512.964 597.733 L 511.102 598.250 L 510.668 597.810 L 510.791 597.088 L 511.542 596.983 L 511.347 595.511 L 511.929 594.743 Z M 511.003 594.068 L 510.719 594.223 L 510.905 593.305 L 511.003 594.068 Z M 503.085 592.984 L 504.170 593.161 L 504.151 594.478 L 502.993 594.329 L 503.085 592.984 Z M 509.801 592.750 L 510.423 593.059 L 509.601 593.802 L 509.801 592.750 Z M 519.872 587.612 L 520.947 587.779 L 520.482 588.278 L 519.766 587.934 L 519.872 587.612 Z M 518.798 583.537 L 519.069 583.326 L 519.633 583.853 L 520.566 586.332 L 520.329 586.779 L 519.443 585.324 L 518.900 585.363 L 517.877 584.348 L 518.703 583.193 L 518.798 583.537 Z M 519.210 582.053 L 519.284 583.324 L 518.637 582.711 L 518.591 581.985 L 519.210 582.053 Z M 520.017 580.893 L 520.388 583.285 L 519.581 582.633 L 519.587 581.959 L 518.506 581.210 L 519.121 581.083 L 519.542 581.661 L 520.017 580.893 Z M 520.872 579.729 L 521.425 581.205 L 520.998 582.465 L 520.214 581.399 L 520.872 579.729 Z M 513.173 579.208 L 513.233 580.713 L 514.201 580.556 L 513.617 582.620 L 514.905 583.253 L 514.453 583.818 L 513.977 583.382 L 513.922 583.917 L 514.595 584.279 L 513.553 585.082 L 513.664 587.459 L 514.132 585.711 L 514.924 585.628 L 515.008 586.373 L 514.321 590.631 L 514.064 590.406 L 514.006 590.892 L 513.193 590.528 L 513.326 591.320 L 512.446 591.668 L 512.602 592.281 L 512.896 591.952 L 513.040 592.335 L 513.779 591.554 L 513.603 590.975 L 514.337 591.421 L 513.390 595.445 L 513.118 594.808 L 512.042 594.489 L 512.050 593.413 L 511.435 593.617 L 511.233 592.399 L 511.816 592.489 L 511.990 592.046 L 511.726 591.733 L 511.230 592.084 L 510.812 590.300 L 510.262 590.801 L 509.938 587.790 L 509.449 587.995 L 509.251 587.515 L 510.274 585.405 L 510.784 586.667 L 511.096 586.462 L 511.149 587.296 L 511.293 587.016 L 511.557 582.056 L 513.173 579.208 Z M 513.923 579.581 L 514.293 579.568 L 514.172 580.301 L 513.646 580.211 L 513.923 579.581 Z M 517.378 578.774 L 517.624 579.474 L 517.168 579.244 L 517.069 579.692 L 516.905 579.083 L 517.378 578.774 Z M 521.063 578.643 L 521.250 579.173 L 521.654 578.680 L 521.545 579.887 L 520.762 579.346 L 521.063 578.643 Z M 518.209 578.239 L 517.805 579.309 L 517.373 578.080 L 517.902 578.244 L 518.063 577.600 L 518.209 578.239 Z M 514.759 577.606 L 516.037 577.977 L 516.638 577.706 L 517.118 578.557 L 516.480 578.989 L 516.933 580.076 L 516.223 580.021 L 516.311 580.878 L 515.720 580.713 L 515.294 581.455 L 515.509 581.965 L 514.508 582.901 L 513.974 582.227 L 514.618 579.182 L 514.040 578.995 L 514.209 578.389 L 514.506 578.603 L 514.865 578.147 L 514.759 577.606 Z M 537.013 577.380 L 537.757 578.083 L 537.871 579.186 L 536.740 579.009 L 536.492 578.143 L 537.013 577.380 Z M 518.502 575.366 L 518.020 576.551 L 517.748 576.441 L 517.983 575.357 L 518.502 575.366 Z M 513.385 566.469 L 513.527 568.836 L 513.041 567.146 L 513.385 566.469 Z M 517.319 564.603 L 517.801 564.680 L 517.448 565.267 L 517.928 565.292 L 518.475 566.942 L 518.057 567.656 L 519.027 569.032 L 518.557 570.476 L 518.774 573.607 L 518.014 573.950 L 517.993 574.269 L 518.555 574.229 L 517.662 574.744 L 517.645 575.556 L 515.881 575.086 L 517.232 577.396 L 515.926 577.772 L 514.652 577.405 L 514.301 577.920 L 513.582 577.821 L 513.143 577.215 L 513.311 571.454 L 512.830 571.214 L 513.242 571.229 L 514.271 569.868 L 513.743 569.388 L 514.120 568.757 L 513.655 566.510 L 513.946 566.871 L 515.494 564.931 L 516.147 565.453 L 516.147 565.453 L 516.775 565.303 L 516.775 565.303 L 517.319 564.603 Z M 513.065 562.967 L 513.572 563.259 L 513.606 565.194 L 513.181 566.208 L 512.640 566.322 L 512.925 566.733 L 512.488 567.468 L 512.069 565.778 L 512.517 563.616 L 513.065 562.967 Z M 519.576 562.859 L 519.007 563.503 L 519.077 564.201 L 518.431 564.071 L 518.594 563.032 L 518.855 563.456 L 519.576 562.859 Z M 520.051 550.447 L 520.377 551.483 L 520.161 553.423 L 520.383 554.099 L 520.720 553.728 L 520.918 554.052 L 520.592 554.567 L 521.331 555.563 L 520.812 556.270 L 520.121 555.362 L 519.504 555.187 L 519.149 555.714 L 518.812 555.039 L 518.400 555.391 L 519.633 555.906 L 519.696 556.840 L 520.400 556.726 L 520.393 557.216 L 520.830 556.929 L 520.109 558.945 L 520.165 561.052 L 519.517 562.179 L 518.720 562.040 L 518.905 562.517 L 518.068 561.483 L 517.683 561.630 L 517.377 562.325 L 518.148 563.411 L 517.600 563.943 L 517.487 563.116 L 516.970 563.166 L 516.387 564.354 L 516.775 565.305 L 516.775 565.305 L 516.147 565.454 L 516.147 565.454 L 515.126 564.635 L 515.125 563.103 L 515.630 563.079 L 515.773 562.521 L 515.004 562.400 L 515.178 560.870 L 515.713 560.720 L 515.457 560.064 L 516.242 559.800 L 515.451 559.500 L 515.829 557.702 L 516.388 557.260 L 515.719 556.828 L 516.132 556.296 L 515.701 556.128 L 516.073 554.728 L 516.649 554.496 L 516.149 554.137 L 516.667 554.137 L 517.010 553.545 L 516.748 552.646 L 517.958 551.993 L 517.708 551.246 L 518.697 551.072 L 519.203 551.430 L 519.180 550.454 L 519.647 551.125 L 520.051 550.447 Z M 519.766 548.231 L 520.017 549.292 L 518.948 548.687 L 519.766 548.231 Z M 532.862 521.707 L 532.245 523.159 L 532.266 522.333 L 532.862 521.707 Z" fill="#f1f5f9" class="district" name="North and Middle Andaman" />
    <path id="south_andaman" d="M 514.993 643.017 L 515.758 644.042 L 516.390 643.767 L 515.784 644.122 L 515.889 645.256 L 515.029 645.719 L 513.820 645.561 L 513.592 643.667 L 514.552 643.631 L 514.703 642.765 L 514.993 643.017 Z M 509.300 607.827 L 509.603 608.518 L 509.637 608.097 L 510.190 608.559 L 510.233 609.884 L 510.804 610.188 L 510.994 612.505 L 509.806 613.903 L 510.422 614.626 L 509.241 616.058 L 507.601 615.278 L 506.566 615.621 L 507.304 613.863 L 506.461 612.737 L 506.373 610.303 L 506.821 610.754 L 508.065 608.602 L 508.957 607.976 L 509.188 608.435 L 509.300 607.827 Z" fill="#f1f5f9" class="district" name="South Andaman" />
    <path id="nicobar" d="M 537.188 685.441 L 537.147 685.911 L 537.915 686.217 L 538.019 688.693 L 539.277 690.539 L 538.567 690.516 L 539.228 691.449 L 538.654 691.637 L 538.217 692.582 L 538.320 694.464 L 537.911 694.890 L 537.248 694.399 L 536.746 695.702 L 536.285 695.486 L 536.509 694.397 L 535.903 694.083 L 535.782 692.832 L 534.969 692.099 L 535.038 691.320 L 533.962 690.197 L 533.316 690.376 L 533.195 688.415 L 533.560 688.142 L 533.160 687.872 L 533.800 686.505 L 534.794 686.564 L 535.358 685.990 L 536.236 686.265 L 536.328 685.585 L 537.188 685.441 Z M 534.362 681.146 L 535.257 682.917 L 533.008 685.395 L 532.438 684.005 L 532.676 682.690 L 534.380 682.220 L 534.362 681.146 Z M 527.390 668.859 L 528.010 669.233 L 528.064 670.188 L 528.436 670.064 L 529.169 670.864 L 529.099 672.085 L 528.280 671.347 L 526.896 671.734 L 526.608 671.101 L 526.931 670.618 L 526.076 670.788 L 526.274 669.331 L 527.390 668.859 Z M 530.892 668.790 L 531.635 669.559 L 531.525 670.900 L 530.053 669.706 L 530.582 668.854 L 530.965 669.463 L 530.892 668.790 Z M 531.548 666.732 L 531.839 668.584 L 531.187 666.885 L 531.548 666.732 Z M 530.457 664.488 L 530.851 665.197 L 529.967 666.247 L 530.914 667.514 L 530.955 668.618 L 530.543 668.348 L 530.078 668.667 L 529.920 669.441 L 529.595 668.442 L 530.021 668.522 L 530.135 667.936 L 530.281 668.389 L 530.528 667.718 L 529.590 668.284 L 529.682 667.446 L 529.055 666.797 L 528.939 665.709 L 530.457 664.488 Z M 524.361 663.761 L 524.448 664.708 L 524.044 664.195 L 524.361 663.761 Z M 522.079 661.850 L 522.438 662.048 L 522.082 663.532 L 523.721 664.820 L 523.611 665.279 L 522.018 664.709 L 521.262 663.681 L 521.419 662.205 L 522.079 661.850 Z M 520.354 659.361 L 520.639 660.086 L 520.173 659.885 L 520.354 659.361 Z M 532.330 657.238 L 532.884 659.463 L 532.554 659.491 L 532.474 660.458 L 532.330 657.238 Z" fill="#f1f5f9" class="district" name="Nicobar" />
  </g>
</svg>