<svg xmlns="http://www.w3.org/2000/svg" viewBox="42 377 74 41" width="100%" height="100%">
  <g fill="none" stroke="#475569" stroke-width="0.5" stroke-linecap="round" stroke-linejoin="round">
    <path id="dadra_nagar_haveli" d="M 105.295 406.932 L 104.658 408.475 L 103.688 407.773 L 102.037 407.443 L 101.873 408.144 L 100.981 407.190 L 101.133 406.642 L 100.542 407.127 L 100.206 406.736 L 100.488 405.831 L 100.148 404.914 L 100.148 404.914 L 99.189 403.431 L 99.636 403.102 L 100.434 403.587 L 100.567 403.131 L 101.196 403.157 L 101.182 402.566 L 101.692 403.153 L 101.824 402.441 L 102.670 402.355 L 103.015 401.597 L 103.130 402.844 L 104.146 402.571 L 104.511 403.257 L 104.079 403.167 L 103.079 404.472 L 102.376 404.523 L 102.493 406.159 L 102.724 405.772 L 103.382 406.157 L 103.909 405.797 L 103.818 405.034 L 105.161 405.249 L 105.546 405.633 L 104.869 406.531 Z" fill="#f1f5f9" class="district" name="Dadra and Nagar Haveli" />
    <path id="daman" d="" fill="#f1f5f9" class="district" name="Daman" />
    <path id="diu" d="M 52.071 392.578 L 52.181 390.770 L 53.492 387.492 L 54.107 388.146 L 55.676 387.931 L 56.534 388.499 L 56.812 389.834 L 55.068 390.609 L 56.727 391.201 L 56.678 391.877 L 56.124 391.869 L 56.122 392.551 L 55.652 392.563 L 56.567 393.782 L 56.567 393.782 L 56.188 393.582 L 56.258 393.898 L 55.182 394.202 L 52.071 392.578 Z" fill="#f1f5f9" class="district" name="Diu" />
  </g>
</svg>