<?xml version="1.0" standalone="no"?>
<!DOCTYPE svg PUBLIC "-//W3C//DTD SVG 20010904//EN"
 "http://www.w3.org/TR/2001/REC-SVG-20010904/DTD/svg10.dtd">
<svg version="1.0" xmlns="http://www.w3.org/2000/svg"
 width="399.000000pt" height="600.000000pt" viewBox="0 0 399.000000 600.000000"
 preserveAspectRatio="xMidYMid meet">
<g transform="translate(0.000000,600.000000) scale(0.100000,-0.100000)"
fill="#000000" stroke="none">
<path d="M1213 5803 c-7 -2 -13 -13 -13 -22 0 -10 -9 -29 -20 -43 -15 -20 -16
-28 -7 -38 10 -10 9 -12 -5 -7 -24 8 -48 -19 -48 -54 0 -25 -5 -30 -30 -36
-28 -5 -30 -8 -24 -35 12 -59 -47 -141 -79 -109 -17 17 -34 13 -62 -15 -15
-15 -32 -23 -41 -20 -29 11 -64 -4 -61 -28 2 -18 -2 -21 -28 -18 -16 2 -54 14
-84 28 -58 26 -133 32 -174 13 -16 -7 -29 -26 -36 -51 l-12 -39 -26 16 c-21
14 -39 16 -89 11 -54 -6 -65 -4 -81 13 -24 25 -57 34 -93 26 -27 -6 -44 -35
-20 -35 6 0 10 -6 10 -13 0 -7 15 -17 33 -22 28 -9 33 -16 42 -57 6 -25 13
-50 18 -54 4 -4 7 -16 7 -26 0 -10 7 -21 14 -24 8 -3 20 -30 26 -60 6 -29 15
-56 21 -59 5 -3 16 -32 25 -63 23 -82 67 -182 80 -182 23 0 48 -74 46 -142 0
-38 -3 -72 -7 -77 -3 -6 1 -13 8 -18 18 -10 51 -109 43 -128 -3 -10 5 -20 24
-30 24 -13 33 -29 55 -102 14 -49 38 -125 53 -171 21 -67 24 -85 13 -91 -10
-6 -10 -13 -2 -29 11 -21 60 -35 76 -22 6 4 21 10 35 12 17 2 25 9 25 23 0 24
4 24 76 2 l56 -18 -14 -51 c-7 -29 -13 -60 -13 -69 0 -9 -9 -28 -21 -43 -20
-25 -22 -26 -45 -11 -59 39 -58 1 1 -42 41 -30 46 -31 71 -18 15 8 32 11 38 8
5 -4 31 -7 56 -8 26 -1 62 -9 81 -19 21 -10 35 -13 37 -6 13 39 90 -28 99 -87
6 -33 7 -35 37 -28 17 4 38 8 46 9 9 1 20 5 25 8 21 12 54 -12 71 -52 13 -30
26 -42 49 -48 23 -6 31 -15 33 -35 4 -31 -12 -35 -42 -12 -29 22 -51 18 -64
-10 -7 -14 -24 -28 -44 -33 -37 -10 -48 -7 -48 14 0 8 -7 14 -15 14 -8 0 -15
7 -15 15 0 8 -7 15 -16 15 -12 0 -15 -6 -10 -25 7 -27 -3 -31 -36 -14 -14 8
-23 8 -31 0 -18 -18 -26 -13 -29 21 -2 23 -9 34 -22 36 -21 4 -86 -28 -86 -43
0 -5 -6 1 -13 15 -13 26 -54 36 -49 11 3 -15 -16 -41 -29 -41 -5 0 -9 7 -9 17
0 9 -3 14 -6 10 -3 -3 -20 10 -36 29 -23 26 -36 33 -51 28 -10 -3 -26 -7 -33
-8 -33 -5 -36 -23 -10 -65 14 -22 26 -45 26 -51 0 -5 15 -10 33 -10 49 0 62
-13 60 -59 -1 -27 2 -41 11 -41 7 0 35 -11 64 -25 28 -13 57 -22 64 -20 7 3
21 -8 30 -25 15 -26 23 -30 58 -30 27 0 43 5 46 15 4 8 17 15 30 15 15 0 24 6
24 15 0 10 10 15 29 15 36 0 67 -43 117 -161 74 -174 217 -642 299 -974 20
-82 40 -156 44 -164 9 -15 -32 -64 -63 -75 -17 -6 -17 -8 -4 -19 9 -6 18 -22
21 -35 9 -38 -21 -60 -123 -89 -11 -3 -7 -9 13 -19 16 -9 27 -23 27 -35 0 -19
-55 -79 -72 -79 -5 0 -8 -5 -8 -11 0 -8 14 -9 44 -5 38 6 46 4 55 -12 12 -22
60 -42 102 -42 15 0 31 -4 34 -10 3 -5 23 -17 43 -27 47 -22 59 -34 67 -66 7
-27 30 -43 40 -27 12 20 24 9 49 -44 30 -62 32 -76 12 -76 -17 0 -31 -33 -16
-38 6 -2 16 -15 21 -29 8 -21 12 -23 24 -13 18 15 71 -2 98 -33 13 -15 20 -17
31 -8 12 10 20 9 40 -5 15 -9 26 -22 25 -28 -4 -29 2 -44 17 -42 11 0 21 -13
30 -36 7 -21 9 -38 3 -38 -5 0 -9 -4 -9 -10 0 -5 6 -10 13 -10 13 0 21 -13 47
-75 25 -61 28 -81 14 -100 -16 -21 -18 -63 -5 -84 5 -8 5 -22 0 -33 -5 -10
-13 -26 -18 -37 -14 -27 9 -64 44 -71 32 -7 76 -29 87 -44 4 -6 21 -5 44 2 42
13 54 9 54 -17 0 -25 42 -36 55 -15 34 55 47 65 75 59 18 -4 31 -2 37 7 4 7
21 13 38 13 22 0 31 5 33 20 6 33 19 39 47 21 14 -9 34 -14 44 -11 10 3 24 -1
31 -10 7 -8 22 -15 34 -15 12 0 31 -7 42 -15 10 -8 30 -15 43 -15 22 0 23 3
19 38 -3 20 -17 55 -32 76 -26 38 -35 96 -16 96 6 0 10 8 10 19 0 26 19 37 65
36 34 0 41 -4 43 -23 2 -12 10 -22 18 -22 7 0 28 -13 46 -29 28 -26 31 -33 21
-49 -10 -17 -7 -24 24 -51 20 -17 37 -30 38 -29 19 29 63 117 59 120 -2 3 15
11 38 18 57 18 66 26 70 62 5 49 29 57 76 25 22 -14 43 -23 46 -20 3 4 6 22 6
40 0 30 3 33 20 28 16 -5 20 -2 20 14 0 12 6 30 12 41 11 17 8 24 -20 53 -42
44 -42 67 1 67 38 0 62 13 53 29 -4 6 15 33 43 61 33 33 51 59 51 75 0 15 13
37 35 56 41 37 42 47 15 91 -11 18 -20 45 -20 59 0 17 -8 29 -24 37 -19 8 -24
20 -29 66 -3 30 -11 71 -18 91 -12 33 -11 36 17 66 28 29 29 34 30 132 l1 102
35 17 c19 9 46 34 60 55 14 21 44 60 67 88 22 27 41 55 41 62 0 6 -11 25 -25
41 -14 17 -25 42 -25 60 0 16 -7 35 -15 42 -8 7 -15 19 -15 27 0 7 -7 16 -15
19 -8 4 -15 14 -15 23 0 41 -83 91 -175 106 -66 11 -75 15 -90 45 -21 41 -19
70 4 70 22 0 79 63 87 98 5 16 14 22 33 22 14 0 42 9 62 19 33 18 40 18 75 6
46 -17 112 -19 148 -5 23 8 26 15 26 60 0 40 -6 59 -26 86 -37 48 -56 131 -38
172 11 26 10 39 -4 81 -14 47 -14 52 1 69 9 10 17 23 17 28 0 14 -132 82 -176
90 -44 7 -75 22 -86 38 -4 6 -8 39 -8 74 0 49 -4 66 -20 82 -25 25 -25 41 -2
71 11 13 21 34 25 47 8 32 -15 103 -46 144 -15 19 -44 67 -66 107 -39 69 -40
74 -27 106 9 21 23 35 41 39 38 10 93 53 100 79 4 12 11 32 17 44 19 39 -7
111 -60 166 -25 26 -42 47 -38 47 5 0 3 7 -4 15 -9 11 -16 12 -26 4 -18 -14
-66 20 -58 41 3 8 7 23 9 33 2 10 16 32 30 48 14 17 26 38 26 47 1 9 3 28 5
42 16 110 17 103 -14 133 -26 25 -32 27 -50 16 -33 -20 -36 -6 -14 63 32 101
35 118 17 118 -9 0 -29 14 -46 32 -27 30 -31 32 -59 21 -17 -7 -32 -7 -36 -2
-10 17 -32 9 -49 -18 -17 -25 -17 -27 0 -40 23 -16 17 -22 -29 -30 l-36 -6 0
41 c0 41 0 41 -46 48 -46 7 -68 29 -44 44 21 13 4 37 -30 45 -53 12 -121 -64
-121 -136 -1 -32 -125 -52 -223 -35 -40 7 -50 6 -58 -8 -5 -9 -18 -16 -29 -16
-22 0 -28 -3 -146 -63 -40 -20 -86 -37 -103 -37 -17 0 -39 -4 -48 -9 -9 -5
-44 -12 -77 -15 -72 -8 -101 -25 -110 -66 -9 -41 -25 -46 -89 -27 -29 8 -65
13 -79 10 -19 -4 -32 3 -58 32 -19 20 -38 43 -42 51 -4 8 -19 14 -33 14 -14 0
-27 7 -31 18 -3 9 -15 29 -25 44 -23 34 -23 53 2 94 20 31 20 35 5 70 -8 20
-15 62 -15 93 -1 69 -26 107 -65 97 -22 -6 -25 -3 -26 21 -1 28 -1 34 8 65 3
10 -3 18 -15 22 -23 8 -52 62 -52 98 0 12 -4 29 -9 37 -9 13 -93 28 -211 35
-100 7 -162 19 -167 32 -2 7 1 23 8 36 7 13 14 25 14 28 0 3 7 16 14 28 7 13
11 25 9 26 -2 1 -15 10 -30 19 -44 27 -63 63 -50 92 11 23 9 26 -24 40 -20 8
-37 15 -38 14 0 0 -7 -3 -13 -6z m54 -23 c8 0 10 -11 6 -35 -5 -31 -1 -39 35
-76 l41 -40 -20 -35 c-36 -64 -21 -104 39 -104 19 0 52 -5 74 -12 31 -9 44 -9
60 1 14 9 23 9 33 1 7 -6 43 -13 80 -17 60 -5 68 -9 77 -32 5 -14 7 -36 5 -49
-2 -12 -2 -20 1 -17 3 3 13 -9 23 -25 11 -17 23 -30 29 -30 5 0 10 -5 10 -11
0 -5 -3 -8 -8 -5 -4 2 -6 -14 -4 -36 l4 -40 -44 7 c-40 6 -48 3 -91 -29 -26
-20 -50 -36 -53 -36 -4 0 -26 18 -50 40 -49 45 -62 48 -90 20 -36 -37 -44 -49
-44 -74 0 -32 -12 -39 -71 -40 -42 -1 -58 -8 -114 -49 -63 -47 -65 -49 -65
-94 0 -39 -2 -44 -17 -38 -10 5 -44 13 -76 19 -48 8 -66 7 -103 -7 -41 -15
-49 -15 -81 -2 -19 8 -42 15 -50 15 -8 0 -41 -27 -72 -60 -34 -35 -66 -60 -78
-60 -23 0 -103 -81 -103 -105 0 -28 -19 -15 -47 33 -15 26 -33 52 -40 57 -14
11 -63 126 -63 148 0 8 -11 36 -25 63 -14 27 -25 58 -25 70 0 12 -13 46 -30
77 -16 30 -35 77 -41 103 -10 37 -18 49 -41 58 -15 6 -28 16 -28 22 0 7 -6 15
-12 17 -7 3 6 6 29 6 33 1 45 -4 53 -19 9 -17 21 -20 90 -20 43 0 82 -4 85
-10 15 -24 43 -9 59 30 10 24 26 44 40 49 32 13 102 3 156 -21 25 -12 63 -22
85 -22 34 -1 40 2 43 22 3 21 12 26 41 22 23 -3 71 22 71 36 0 16 16 19 25 4
3 -5 19 -10 35 -10 36 0 74 58 73 112 0 30 3 38 21 40 14 2 24 15 32 43 9 32
16 41 37 43 27 3 35 16 17 27 -7 4 -5 14 5 28 8 12 15 30 15 40 0 15 5 18 23
13 12 -3 27 -6 34 -6z m246 -595 c20 -19 43 -35 51 -35 9 0 37 16 63 36 34 26
52 34 67 29 12 -4 31 -7 44 -7 12 0 22 -4 22 -9 0 -14 38 -11 43 4 3 8 11 3
25 -13 17 -19 21 -37 20 -75 0 -27 5 -66 12 -86 12 -33 11 -41 -9 -82 l-22
-45 27 -52 c18 -34 37 -55 58 -64 17 -7 51 -34 75 -60 38 -41 47 -46 73 -41
35 8 118 -14 118 -32 0 -7 -5 -23 -12 -37 -8 -19 -16 -24 -32 -20 -30 7 -86
-49 -86 -87 0 -32 31 -69 57 -69 9 0 30 -5 47 -11 27 -10 38 -7 90 20 32 17
66 31 77 31 17 0 59 -36 59 -50 0 -3 -14 -21 -31 -40 -57 -61 -81 -150 -52
-189 44 -57 87 -101 100 -101 23 0 73 -56 73 -83 0 -26 34 -77 52 -77 14 0 68
-40 68 -51 0 -5 -8 -9 -19 -9 -10 0 -30 -9 -45 -21 l-26 -20 -23 27 c-29 34
-52 25 -43 -17 5 -27 4 -29 -19 -23 -14 3 -37 3 -51 0 -27 -7 -28 -12 -9 -73
5 -15 3 -23 -4 -23 -21 0 -71 63 -82 102 -5 21 -19 43 -31 49 -20 11 -20 13
-5 24 24 17 21 25 -13 36 -24 9 -30 17 -30 39 0 34 -40 70 -79 70 -36 0 -46 9
-60 53 -14 42 -36 59 -98 78 -46 13 -83 42 -83 63 0 17 -70 90 -95 100 -13 4
-30 -2 -54 -22 -67 -54 -78 -56 -114 -29 -60 45 -98 91 -93 110 2 10 -4 39
-15 64 -15 35 -22 44 -31 35 -16 -16 -45 -15 -51 2 -9 22 4 56 30 82 16 17 22
30 18 47 -9 35 11 76 41 83 21 5 25 11 21 30 -2 13 0 24 4 24 5 0 9 18 9 40 0
28 -4 40 -14 40 -8 0 -18 -4 -21 -10 -3 -5 -20 -10 -36 -10 -20 0 -28 4 -23
12 4 7 3 8 -4 4 -7 -4 -17 4 -24 21 -7 15 -20 33 -28 40 -12 9 -5 13 37 19 60
7 68 14 77 65 12 65 -29 129 -83 129 -29 0 -37 36 -14 63 40 48 58 48 106 2z
m-62 -85 c28 -15 51 -77 38 -101 -5 -11 -8 -23 -5 -28 8 -12 -20 -34 -32 -27
-13 7 -82 -21 -82 -34 0 -5 6 -13 13 -17 7 -4 18 -20 25 -36 16 -38 55 -51 93
-32 l29 16 0 -31 c0 -16 -5 -30 -11 -30 -7 0 -9 -10 -5 -25 5 -18 2 -25 -8
-25 -24 0 -56 -50 -56 -88 0 -24 -8 -42 -25 -58 -33 -30 -35 -88 -4 -104 16
-9 24 -8 39 5 16 15 18 14 24 -9 3 -13 9 -32 13 -43 6 -16 5 -16 -10 -4 -14
11 -18 10 -28 -13 -14 -30 -29 -34 -29 -8 0 9 -13 23 -29 30 -24 11 -35 10
-68 -3 l-39 -16 -1 -64 c0 -51 3 -68 18 -81 11 -9 19 -21 19 -25 0 -19 -34
-38 -86 -49 -45 -10 -59 -17 -75 -43 -10 -18 -19 -42 -19 -54 0 -29 -30 -37
-92 -25 -51 10 -60 5 -72 -34 -6 -19 -11 -20 -44 -14 -20 4 -52 13 -70 20 -40
15 -62 7 -62 -21 0 -16 -5 -20 -20 -16 -11 3 -23 1 -26 -4 -8 -14 -51 -10 -57
5 -3 8 -2 16 3 18 11 4 4 33 -50 213 -34 113 -47 145 -71 166 -16 14 -29 34
-29 45 0 26 -30 114 -38 114 -4 0 -7 27 -8 60 0 52 2 60 18 60 11 0 23 13 32
33 18 42 71 92 87 82 7 -5 10 -4 6 2 -4 6 4 14 17 17 14 3 41 27 62 52 51 62
66 69 111 48 34 -17 38 -17 86 0 55 20 135 15 174 -10 28 -18 37 -5 34 53 0
23 3 43 8 43 5 0 31 18 57 40 40 33 56 40 94 41 25 0 54 4 65 9 28 12 63 12
86 0z m1705 -47 c-1 -37 0 -38 46 -47 45 -9 46 -10 41 -40 -7 -47 16 -63 67
-47 47 14 59 30 36 46 -30 22 -9 41 44 42 40 1 55 -4 73 -23 12 -13 28 -24 36
-24 15 0 14 -6 -15 -111 -10 -36 -15 -73 -11 -83 7 -17 9 -17 33 -1 25 16 27
16 47 -3 20 -21 26 -70 11 -94 -5 -7 -9 -30 -10 -50 -1 -24 -12 -49 -28 -69
-14 -17 -26 -39 -26 -48 0 -10 -9 -30 -21 -45 l-20 -26 23 0 c13 0 34 -7 46
-16 18 -12 26 -13 37 -4 12 10 15 10 15 -2 0 -8 18 -31 40 -53 22 -21 46 -58
55 -83 13 -41 13 -48 0 -68 -8 -13 -15 -32 -15 -43 0 -23 -47 -59 -95 -72 -27
-8 -36 -17 -46 -47 -14 -43 -20 -49 -75 -63 -23 -6 -57 -25 -76 -43 -19 -18
-59 -40 -92 -50 -40 -13 -69 -30 -96 -59 -22 -22 -37 -44 -34 -49 10 -15 -6
-44 -37 -67 -28 -21 -32 -21 -54 -7 -13 9 -30 14 -37 11 -7 -2 -29 -7 -48 -10
-19 -3 -53 -8 -75 -11 -22 -4 -45 -11 -52 -16 -7 -6 -19 -5 -33 2 -11 6 -30 8
-41 5 -20 -7 -97 27 -111 49 -4 6 -8 24 -8 40 0 47 -64 151 -104 170 -40 19
-66 51 -66 81 -1 29 -29 60 -78 84 -24 13 -52 38 -67 60 -13 22 -29 42 -35 46
-15 9 21 145 38 145 4 0 17 16 30 34 26 38 21 62 -19 90 -18 12 -26 13 -61 0
-23 -8 -56 -23 -74 -35 -26 -16 -38 -18 -53 -10 -11 6 -29 11 -40 11 -26 0
-61 34 -61 59 0 10 13 32 28 49 21 22 35 29 53 25 20 -4 28 1 37 22 7 14 12
33 12 41 0 8 7 17 16 21 9 3 24 25 34 49 17 38 24 44 57 48 21 4 61 11 88 16
28 6 71 15 97 20 26 5 64 20 85 34 21 14 47 26 58 26 11 0 29 7 39 15 11 8 27
15 37 15 9 0 28 9 42 20 21 17 30 18 53 9 38 -14 164 -9 189 8 11 7 28 13 38
13 13 0 17 5 13 16 -10 26 12 92 33 99 11 3 22 12 25 20 3 9 18 15 34 15 27 0
29 -3 28 -37z m-1753 -629 c10 -4 16 -12 14 -18 -4 -11 20 -35 36 -36 4 0 7 8
7 18 0 10 3 21 6 25 9 9 35 -4 28 -15 -8 -12 121 -138 142 -138 22 0 66 24 88
49 26 28 64 27 77 -2 14 -31 -13 -97 -41 -97 -10 0 -21 -4 -24 -8 -10 -16 29
-82 52 -88 35 -10 45 -37 19 -50 -18 -10 -21 -20 -18 -57 1 -25 -2 -48 -8 -52
-17 -10 -13 -44 8 -72 23 -28 18 -51 -12 -55 -29 -4 -48 -45 -42 -88 6 -34 4
-36 -46 -60 -39 -19 -55 -33 -63 -56 -6 -17 -21 -44 -33 -58 l-22 -27 -58 16
c-52 15 -60 21 -76 56 -25 53 -45 62 -110 50 -56 -10 -67 -4 -67 37 0 12 -5
22 -11 22 -6 0 -22 14 -36 30 -25 30 -56 39 -68 20 -4 -6 -19 -4 -41 5 -42 17
-172 27 -180 13 -3 -5 -12 -4 -20 3 -13 10 -12 15 5 33 24 26 41 68 41 104 0
15 11 45 25 67 13 22 25 47 25 56 0 14 12 16 77 15 l77 -1 13 44 c17 60 27 68
89 81 80 17 105 51 67 93 -12 13 -18 36 -18 72 0 50 2 55 30 69 17 8 35 13 40
10 6 -2 18 -7 28 -10z m454 -188 c19 -38 29 -46 75 -62 75 -24 93 -39 108 -84
13 -40 18 -43 76 -55 40 -8 61 -31 66 -70 2 -22 9 -31 25 -33 20 -3 21 -6 10
-24 -10 -17 -9 -22 11 -35 12 -9 22 -22 22 -31 0 -8 13 -36 30 -62 54 -84 118
-92 84 -11 -18 43 -6 54 50 45 39 -6 39 -6 34 25 -6 38 4 39 30 4 l20 -28 24
21 c13 12 34 24 48 27 22 5 29 1 42 -26 10 -18 20 -49 24 -70 8 -44 33 -72 81
-88 28 -9 32 -13 22 -25 -6 -8 -18 -14 -25 -14 -8 0 -14 -10 -14 -22 l-1 -23
-18 22 -19 23 -81 -43 c-91 -48 -123 -86 -97 -116 7 -9 11 -22 9 -29 -3 -7 -2
-20 1 -28 5 -13 9 -14 21 -4 10 9 15 9 15 1 0 -6 7 -11 16 -11 9 0 21 -14 27
-30 7 -18 17 -28 24 -26 7 3 13 1 13 -4 0 -6 -5 -10 -11 -10 -6 0 -9 -6 -6
-12 2 -7 11 -12 20 -10 22 4 36 -53 25 -96 -5 -18 -7 -36 -3 -41 3 -5 1 -11
-5 -13 -5 -1 -11 -12 -13 -23 -5 -30 -27 -67 -54 -88 -24 -20 -28 -37 -14 -65
21 -43 29 -80 17 -92 -8 -9 -5 -16 13 -28 49 -34 81 -71 81 -92 0 -12 -14 -35
-31 -52 l-31 -31 -25 31 c-25 32 -56 42 -69 21 -12 -19 -45 43 -38 73 5 23 0
31 -28 48 -20 12 -50 20 -79 20 -36 0 -50 5 -61 21 -13 21 -14 21 -63 4 -62
-21 -101 -10 -110 32 -3 15 -13 56 -20 90 -8 34 -12 75 -9 91 6 29 3 32 -60
68 -36 21 -66 42 -66 46 0 22 -43 48 -78 48 -55 0 -72 17 -81 80 -4 30 -14 65
-22 78 -14 22 -72 49 -157 71 -44 12 -45 17 -12 56 10 11 20 32 24 47 6 27 49
58 80 58 23 0 34 29 29 72 -6 42 8 68 38 68 31 0 36 46 8 76 -22 24 -23 25 -6
54 13 21 16 40 11 65 -5 28 -3 35 10 35 36 0 26 62 -11 74 -10 3 -26 19 -35
36 -16 28 -16 29 3 35 11 4 27 24 35 46 9 21 19 39 23 39 4 0 17 -20 28 -44z
m1677 -287 c9 -22 36 -71 61 -108 70 -106 80 -157 38 -203 -20 -23 -20 -64 1
-87 10 -11 18 -41 20 -78 2 -34 9 -70 15 -81 11 -22 59 -42 98 -42 19 0 131
-56 151 -75 2 -2 -4 -15 -14 -29 -16 -25 -16 -29 1 -67 16 -34 17 -45 7 -73
-7 -18 -12 -39 -12 -47 0 -34 32 -120 55 -147 18 -21 25 -42 25 -70 0 -38 -3
-42 -33 -50 -38 -11 -110 -2 -145 17 -19 10 -28 10 -48 -4 -14 -9 -44 -19 -66
-23 -26 -5 -45 -15 -52 -27 -38 -72 -57 -94 -86 -100 -33 -7 -35 -16 -19 -66
15 -45 40 -66 92 -74 98 -15 177 -59 177 -97 0 -10 7 -21 15 -24 8 -4 15 -12
15 -19 0 -7 7 -18 15 -25 8 -7 15 -26 15 -42 0 -16 11 -44 25 -62 14 -18 25
-37 25 -42 0 -8 -92 -131 -123 -164 -8 -8 -28 -23 -45 -32 l-32 -17 0 -98 c0
-95 -1 -100 -30 -133 -34 -41 -35 -47 -14 -89 9 -18 17 -55 17 -83 1 -42 5
-52 29 -69 19 -14 28 -29 28 -47 0 -15 7 -36 15 -46 23 -30 18 -52 -15 -76
-21 -15 -30 -30 -30 -49 0 -20 -12 -39 -45 -68 -24 -23 -47 -52 -50 -66 -5
-19 -15 -27 -42 -32 -24 -4 -38 -2 -43 6 -5 6 -25 15 -45 18 -31 5 -42 13 -57
42 -10 20 -21 59 -24 85 -4 36 -14 57 -34 78 -31 32 -41 33 -167 21 -40 -4
-73 -5 -73 -1 0 12 31 70 47 88 9 10 13 28 11 42 -4 18 0 26 14 29 10 3 18 14
18 25 0 31 -36 55 -96 63 -31 4 -58 10 -61 12 -2 3 3 26 11 51 21 61 20 77 -5
125 -30 58 -76 70 -131 34 -48 -32 -79 -36 -96 -11 -13 18 -42 25 -42 10 0
-17 -45 -30 -64 -20 -15 8 -23 5 -42 -18 -28 -35 -38 -26 -54 49 -15 70 -26
87 -58 87 -35 0 -52 16 -52 50 0 36 -27 70 -54 70 -27 0 -42 26 -26 45 6 7 8
24 5 38 -6 21 -2 25 25 30 17 4 51 20 75 37 63 44 82 40 153 -31 56 -56 64
-61 94 -56 18 4 56 0 83 -7 28 -8 55 -10 60 -6 6 5 33 14 60 21 61 15 71 22
78 57 7 34 -17 62 -52 62 -15 0 -31 8 -38 19 -7 11 -43 38 -80 59 -130 76
-139 121 -30 166 36 15 51 46 22 46 -8 0 -14 6 -12 13 1 6 -4 11 -11 9 -8 -1
-16 6 -19 17 -5 21 -29 35 -45 25 -5 -3 -12 3 -15 15 -3 12 -12 21 -19 21 -8
0 -14 6 -14 14 0 8 -5 27 -11 43 -10 28 -11 28 -27 8 -10 -11 -28 -19 -42 -18
-14 0 -34 1 -44 2 -17 1 -18 3 -4 19 34 39 39 60 23 92 -9 17 -13 35 -9 41 8
14 105 3 152 -17 18 -7 31 -10 28 -6 -7 11 5 25 37 45 15 10 27 26 27 36 0 22
15 29 90 45 61 13 57 4 45 113 -3 31 -2 54 5 58 5 3 10 1 10 -6 0 -8 4 -8 15
1 13 11 14 8 9 -19 -5 -24 -2 -37 13 -54 11 -12 26 -37 33 -55 13 -32 20 -36
91 -45 46 -7 132 23 169 58 l28 27 29 -30 c16 -17 42 -34 58 -38 17 -4 41 -14
55 -23 13 -9 27 -15 30 -14 3 1 15 0 28 -4 17 -4 31 2 52 22 l28 27 17 -26
c10 -15 15 -29 11 -33 -3 -4 0 -14 8 -22 8 -9 22 -30 30 -46 12 -23 16 -26 16
-10 0 11 -9 31 -20 45 -11 14 -20 32 -20 41 0 9 -8 27 -19 40 l-19 23 -35 -26
-35 -27 -53 20 c-30 12 -64 23 -76 26 -11 3 -34 18 -49 34 -34 35 -41 36 -73
5 -34 -32 -121 -65 -147 -55 -10 4 -33 8 -51 8 -29 1 -45 17 -42 44 1 5 -11
21 -26 37 -22 23 -25 33 -20 64 7 34 -2 46 -19 29 -4 -4 -15 -8 -24 -8 -15 0
-17 -11 -15 -81 l2 -81 -45 -7 c-53 -7 -107 -33 -98 -47 7 -12 -24 -49 -42
-49 -7 0 -14 -5 -16 -10 -2 -8 -26 -7 -77 1 -57 10 -78 10 -92 0 -29 -18 -74
9 -76 46 0 15 -6 50 -13 76 -12 48 -11 49 18 79 17 16 36 45 42 64 6 19 15 32
19 29 4 -2 8 15 9 38 0 23 1 47 2 52 6 26 -2 53 -19 72 -11 12 -17 23 -14 27
8 8 -17 37 -27 31 -5 -3 -11 9 -15 25 -5 24 -11 29 -25 25 -11 -3 -20 1 -24
11 -5 14 -9 14 -23 3 -14 -12 -15 -11 -9 9 5 13 3 29 -3 36 -23 27 4 59 80 98
l74 37 21 -26 c22 -25 22 -25 29 -4 3 11 23 36 43 55 34 32 38 34 62 21 22
-11 29 -11 41 -1 8 7 49 18 91 25 61 10 85 10 112 0 31 -11 36 -10 70 16 26
20 36 35 36 55 0 29 60 100 84 100 24 0 120 47 146 71 19 19 85 50 121 58 4 0
14 -17 23 -40z m-2623 -439 c43 -54 79 -52 91 5 4 18 6 17 16 -7 14 -33 26
-35 71 -7 38 23 66 18 58 -10 -8 -32 6 -44 36 -30 21 9 30 9 42 -1 13 -10 18
-10 33 3 19 17 35 12 45 -15 8 -24 75 -7 104 26 23 27 47 33 58 16 3 -5 17
-10 31 -10 23 0 28 10 27 48 -1 7 4 11 10 9 10 -4 151 -46 210 -63 26 -8 49
-49 57 -100 7 -43 6 -44 -21 -44 -15 0 -30 -4 -33 -9 -9 -13 -69 -20 -89 -9
-13 7 -20 3 -29 -17 -11 -25 -28 -34 -28 -15 0 25 -21 6 -40 -37 -16 -35 -19
-55 -13 -73 12 -36 5 -67 -18 -73 -10 -3 -19 -13 -19 -24 0 -13 -8 -18 -29
-19 -28 -1 -31 3 -56 72 -29 81 -77 159 -106 174 -20 11 -69 3 -69 -11 0 -5
-9 -9 -19 -9 -11 0 -26 -7 -35 -15 -24 -24 -75 -19 -85 8 -5 13 -17 29 -27 37
-11 9 -15 10 -10 3 9 -16 3 -16 -45 -1 -22 6 -39 15 -39 20 0 4 -9 8 -20 8
-17 0 -20 7 -20 39 0 44 -11 57 -60 66 -27 5 -40 15 -58 45 -27 47 -27 47 -4
53 39 10 53 5 83 -33z m909 -210 c13 -13 33 -20 60 -20 37 0 70 -19 81 -47 2
-5 31 -25 64 -44 58 -34 59 -36 57 -75 -4 -52 34 -196 55 -211 23 -17 66 -16
110 2 43 18 43 18 43 1 0 -7 12 -21 26 -31 15 -9 23 -12 20 -6 -9 15 26 14 75
-1 39 -11 43 -17 40 -50 -1 -9 5 -30 13 -46 14 -27 14 -31 -5 -51 -11 -11 -26
-21 -34 -21 -8 0 -15 -9 -15 -21 0 -11 -4 -17 -10 -14 -5 3 -10 -1 -10 -10 0
-8 -8 -19 -17 -22 -10 -4 -28 -17 -40 -30 -19 -20 -22 -31 -17 -71 7 -53 25
-72 66 -72 21 0 28 -5 28 -20 0 -11 -7 -20 -15 -20 -9 0 -29 -7 -44 -15 -26
-13 -28 -18 -24 -58 6 -48 -13 -77 -48 -77 -28 0 -33 -22 -15 -65 9 -21 16
-39 16 -40 0 -2 -20 -6 -45 -9 -34 -6 -45 -12 -45 -25 0 -11 -9 -21 -22 -24
-12 -4 -19 -9 -16 -12 3 -3 -8 -19 -25 -36 -21 -21 -33 -27 -40 -20 -16 16
-68 13 -104 -7 -18 -9 -55 -29 -83 -45 -27 -15 -50 -24 -50 -21 0 4 -8 0 -18
-9 -17 -16 -20 -15 -45 11 -21 22 -35 62 -71 208 -50 201 -168 608 -219 756
-23 66 -31 100 -24 107 7 7 15 7 25 -1 16 -14 34 6 25 29 -3 7 5 16 18 21 24
9 33 52 18 83 -13 26 22 100 43 93 10 -3 22 3 29 14 10 16 20 19 50 15 25 -4
45 0 60 11 31 21 55 20 79 -4z m745 -587 c7 -16 18 -23 40 -22 16 0 51 -2 77
-5 37 -4 48 -1 53 12 6 14 8 13 16 -7 7 -18 6 -27 -3 -33 -7 -4 -11 -8 -8 -9
52 -9 53 -10 53 -44 0 -29 12 -33 21 -8 6 14 12 11 39 -19 18 -19 39 -37 47
-40 10 -4 -2 -13 -32 -26 -113 -50 -94 -116 56 -192 16 -8 41 -27 55 -42 14
-16 35 -28 46 -28 27 0 45 -18 45 -46 0 -29 -13 -37 -88 -57 -51 -14 -71 -15
-103 -7 -23 6 -53 9 -67 6 -35 -8 -81 20 -118 73 -25 35 -34 41 -67 41 -26 0
-50 -9 -79 -30 -22 -17 -57 -34 -77 -40 -36 -9 -36 -10 -35 -60 2 -71 2 -70
28 -70 30 0 48 -22 53 -62 4 -42 20 -58 54 -58 32 0 36 -5 64 -102 9 -32 21
-61 27 -64 6 -4 22 8 35 25 19 24 28 29 38 21 14 -11 41 -5 66 17 13 11 18 10
34 -7 24 -27 60 -25 99 5 52 39 96 33 123 -19 19 -36 18 -102 -3 -133 -17 -28
-17 -28 2 -47 9 -10 33 -16 58 -16 29 0 52 -7 70 -21 30 -24 34 -49 7 -49 -10
0 -25 -8 -32 -17 -8 -9 -9 -14 -3 -10 22 13 24 -24 4 -50 -11 -14 -20 -31 -20
-38 0 -7 -9 -23 -21 -36 -11 -13 -18 -19 -16 -14 3 6 -6 11 -19 12 -47 4 -54
7 -70 24 -14 16 -14 18 4 23 34 11 35 37 4 65 -27 25 -34 26 -133 26 -95 -1
-108 -4 -159 -31 -33 -18 -65 -44 -79 -66 l-24 -37 -28 23 c-35 30 -90 38
-159 25 -30 -6 -66 -11 -80 -10 -44 0 -174 11 -196 16 -26 6 -39 47 -22 74 10
16 6 25 -25 62 -40 46 -48 90 -22 119 14 16 11 16 -42 8 -32 -5 -69 -7 -82 -5
-14 3 -32 1 -40 -3 -34 -18 -108 -50 -115 -50 -4 0 -16 20 -27 44 -11 25 -31
54 -46 66 -22 17 -26 27 -24 69 1 28 -3 52 -8 55 -9 6 43 66 56 66 4 0 15 -7
24 -16 17 -15 22 -15 74 10 31 14 59 26 64 26 4 0 16 8 25 19 23 26 103 48
119 32 6 -6 16 -11 23 -11 15 0 99 79 107 102 3 9 22 19 46 23 46 8 51 23 27
71 -18 33 -15 40 21 47 39 8 53 36 43 80 -7 34 -6 38 23 52 16 8 36 15 42 15
7 0 16 7 19 16 8 22 -12 57 -30 50 -8 -3 -25 -1 -38 4 -22 8 -24 15 -23 57 2
42 6 50 34 68 18 11 32 25 33 31 0 7 7 14 15 18 8 3 15 12 15 21 0 8 7 15 15
15 9 0 18 7 22 16 14 37 82 42 98 7z m-830 -953 c12 -14 34 -46 49 -72 29 -53
32 -54 55 -35 27 23 107 48 148 47 21 -1 50 1 65 4 26 6 26 6 17 -29 -9 -30
-7 -40 11 -65 12 -16 30 -36 42 -44 19 -13 19 -16 5 -36 -10 -15 -13 -28 -7
-39 5 -9 11 -23 13 -32 6 -19 46 -28 132 -30 101 -2 119 -1 160 5 94 15 128
11 163 -19 39 -33 48 -32 68 11 13 26 32 43 78 66 57 29 67 31 160 29 77 -1
104 -5 118 -18 23 -21 23 -31 -4 -52 -21 -18 -21 -18 -2 -38 34 -34 93 -46
196 -39 51 3 102 6 112 7 27 0 76 -50 76 -79 0 -36 21 -103 41 -133 13 -18 28
-26 50 -27 35 -1 49 -15 42 -41 -2 -9 10 -30 30 -49 32 -31 34 -36 24 -63 -7
-17 -18 -28 -26 -26 -9 1 -17 -7 -19 -18 -8 -45 -10 -47 -50 -26 -35 18 -41
18 -61 5 -11 -8 -21 -25 -21 -37 0 -33 -11 -44 -57 -57 -37 -11 -45 -20 -69
-69 -15 -31 -28 -58 -30 -60 -2 -2 -15 4 -29 13 -21 14 -23 20 -15 36 8 15 4
26 -21 55 -17 19 -37 35 -45 35 -8 0 -19 11 -24 26 -9 23 -14 25 -62 22 -50
-3 -52 -4 -75 -48 -22 -41 -23 -49 -12 -83 7 -21 16 -40 21 -43 13 -8 39 -75
32 -85 -3 -5 -18 -2 -34 6 -16 8 -38 15 -48 15 -10 0 -27 9 -36 19 -10 11 -25
17 -33 14 -8 -3 -25 0 -37 7 -32 17 -60 9 -64 -18 -3 -18 -10 -22 -37 -22 -20
0 -35 -6 -39 -15 -5 -13 -9 -13 -27 -3 -19 12 -24 9 -59 -32 -22 -24 -40 -42
-42 -40 -2 3 -8 14 -14 25 -9 16 -22 20 -62 20 -32 0 -57 6 -68 16 -11 9 -35
19 -56 23 -34 6 -58 33 -40 45 14 10 23 71 12 91 -7 13 -5 29 6 56 19 46 14
74 -31 169 -19 41 -35 81 -35 89 0 8 -11 27 -25 42 -14 15 -25 33 -25 40 0 20
-47 47 -70 41 -12 -3 -25 1 -33 12 -17 23 -57 39 -89 35 -20 -2 -29 3 -34 19
-4 12 -2 23 5 25 17 6 13 37 -14 98 -22 51 -28 56 -50 51 -22 -4 -28 1 -39 28
-17 40 -102 91 -176 105 -29 6 -54 10 -56 10 -2 0 -4 6 -4 13 0 18 -45 38 -67
30 -10 -4 -3 6 15 21 36 31 38 40 18 78 -13 25 -13 27 13 34 14 4 31 6 37 5 7
-1 15 7 19 16 6 15 8 15 12 3 3 -8 15 -26 28 -40z"/>
<path d="M1111 5514 c0 -11 3 -14 6 -6 3 7 2 16 -1 19 -3 4 -6 -2 -5 -13z"/>
<path d="M1626 5238 c3 -5 10 -6 15 -3 13 9 11 12 -6 12 -8 0 -12 -4 -9 -9z"/>
<path d="M1440 5179 c0 -5 -4 -8 -8 -5 -4 2 -8 -4 -8 -15 0 -19 1 -19 13 -3
13 18 17 34 8 34 -3 0 -5 -5 -5 -11z"/>
<path d="M2306 4128 c3 -5 10 -6 15 -3 13 9 11 12 -6 12 -8 0 -12 -4 -9 -9z"/>
<path d="M2311 3804 c0 -11 3 -14 6 -6 3 7 2 16 -1 19 -3 4 -6 -2 -5 -13z"/>
<path d="M2336 4217 c3 -10 9 -15 12 -12 3 3 0 11 -7 18 -10 9 -11 8 -5 -6z"/>
<path d="M3570 4120 c-9 -6 -10 -10 -3 -10 6 0 15 5 18 10 8 12 4 12 -15 0z"/>
<path d="M2560 3971 c0 -6 4 -13 10 -16 6 -3 7 1 4 9 -7 18 -14 21 -14 7z"/>
<path d="M1553 4275 c0 -8 4 -12 9 -9 5 3 6 10 3 15 -9 13 -12 11 -12 -6z"/>
<path d="M1806 3788 c3 -5 10 -6 15 -3 13 9 11 12 -6 12 -8 0 -12 -4 -9 -9z"/>
<path d="M1800 3466 c0 -2 8 -10 18 -17 15 -13 16 -12 3 4 -13 16 -21 21 -21
13z"/>
<path d="M2211 2937 c-13 -21 -12 -21 5 -5 10 10 16 20 13 22 -3 3 -11 -5 -18
-17z"/>
<path d="M3426 2958 c3 -5 10 -6 15 -3 13 9 11 12 -6 12 -8 0 -12 -4 -9 -9z"/>
<path d="M1000 3370 c0 -5 5 -10 11 -10 5 0 7 5 4 10 -3 6 -8 10 -11 10 -2 0
-4 -4 -4 -10z"/>
<path d="M1126 5737 c3 -10 9 -15 12 -12 3 3 0 11 -7 18 -10 9 -11 8 -5 -6z"/>
<path d="M778 3205 c-2 -3 -20 -6 -38 -8 -46 -5 -52 -27 -8 -27 19 0 39 -5 44
-10 14 -14 38 14 30 35 -5 15 -18 20 -28 10z m12 -24 c0 -5 -9 -7 -20 -4 -11
3 -20 7 -20 9 0 2 9 4 20 4 11 0 20 -4 20 -9z"/>
<path d="M2251 794 c0 -11 3 -14 6 -6 3 7 2 16 -1 19 -3 4 -6 -2 -5 -13z"/>
</g>
</svg>
