<svg xmlns="http://www.w3.org/2000/svg" viewBox="76 585 44 84" width="100%" height="100%">
  <g fill="none" stroke="#475569" stroke-width="0.5" stroke-linecap="round" stroke-linejoin="round">
    <path id="lakshadweep" d="M 102.280 662.907 L 102.240 663.376 L 101.868 663.776 L 101.495 663.781 L 101.227 663.676 L 101.216 663.547 L 101.332 663.652 L 101.692 663.623 L 102.000 663.441 L 102.280 662.907 Z M 114.474 624.773 L 114.398 625.690 L 114.270 625.779 L 114.136 625.459 L 114.252 625.477 L 114.339 625.341 L 114.474 624.773 Z M 86.767 624.089 L 86.848 624.336 L 86.726 624.294 L 86.767 624.089 Z M 114.672 623.674 L 114.759 623.976 L 114.695 624.229 L 114.672 623.674 Z M 93.343 614.698 L 93.494 614.810 L 93.488 615.030 L 92.784 615.478 L 93.343 614.698 Z M 115.038 609.490 L 115.009 609.574 L 115.543 609.633 L 114.921 609.853 L 114.694 609.770 L 114.683 609.575 L 115.038 609.490 Z M 83.516 609.527 L 83.859 608.898 L 83.969 608.442 L 84.103 608.293 L 84.225 608.299 L 83.516 609.527 Z M 85.999 606.836 L 85.935 606.883 L 85.993 607.043 L 85.853 607.061 L 85.882 606.860 L 85.999 606.836 Z M 86.737 606.681 L 86.464 606.894 L 86.493 606.782 L 86.737 606.681 Z M 95.215 602.772 L 95.244 602.951 L 94.976 603.318 L 94.872 603.187 L 94.890 603.009 L 95.215 602.772 Z M 82.056 601.088 L 82.085 601.141 L 81.998 601.106 L 82.056 601.088 Z M 96.442 600.133 L 96.192 601.040 L 95.838 601.835 L 96.187 600.536 L 96.442 600.133 Z M 100.832 595.044 L 101.024 595.269 L 101.076 595.608 L 100.994 595.692 L 100.872 595.181 L 100.767 595.097 L 100.832 595.044 Z M 83.801 592.834 L 83.859 592.947 L 83.772 592.918 L 83.801 592.834 Z M 94.849 590.588 L 94.902 590.891 L 94.657 591.135 L 94.849 590.588 Z" fill="#f1f5f9" class="district" name="Lakshadweep" />
  </g>
</svg>